<svg width="16" height="16" viewBox="0 0 16 16" fill="none" xmlns="http://www.w3.org/2000/svg">
<path fill-rule="evenodd" clip-rule="evenodd" d="M2.88891 4.79366C2.76172 5.14674 2.76172 5.55115 2.76172 6.35999L2.76172 9.20984C2.76172 9.88264 2.76172 10.219 2.85445 10.5244C2.93655 10.7947 3.07114 11.0462 3.25053 11.2645C3.45316 11.511 3.73306 11.6976 4.29286 12.0708L5.61586 12.9528C6.4775 13.5272 6.90833 13.8145 7.37399 13.926C7.7855 14.0247 8.21449 14.0247 8.62601 13.926C9.09167 13.8145 9.52249 13.5272 10.3841 12.9528L11.7071 12.0708C12.2669 11.6976 12.5468 11.511 12.7495 11.2645C12.9289 11.0462 13.0634 10.7947 13.1455 10.5244C13.2383 10.219 13.2383 9.88264 13.2383 9.20984L13.2383 6.35999C13.2383 5.55116 13.2383 5.14674 13.1111 4.79367C12.9987 4.48157 12.8155 4.19974 12.576 3.97025C12.305 3.71062 11.9354 3.54638 11.1963 3.21788L9.39648 2.41797C8.88223 2.18941 8.6251 2.07513 8.35783 2.03C8.12095 1.99 7.87904 1.99 7.64216 2.03C7.37489 2.07513 7.11777 2.18941 6.60352 2.41797L4.8037 3.21788C4.06457 3.54638 3.69501 3.71062 3.42403 3.97025C3.1845 4.19974 3.00134 4.48157 2.88891 4.79366ZM10.1653 7.08992C10.3227 6.93256 10.3227 6.67743 10.1653 6.52007C10.008 6.36271 9.75284 6.36271 9.59548 6.52007L7.46274 8.65282L6.67314 7.86322C6.51578 7.70586 6.26065 7.70586 6.10329 7.86322C5.94593 8.02058 5.94594 8.27571 6.10329 8.43307L7.17781 9.50759C7.33517 9.66495 7.5903 9.66495 7.74766 9.50759L10.1653 7.08992Z" fill="#838CED"/>
</svg>
